<svg xmlns="http://www.w3.org/2000/svg" xmlns:xlink="http://www.w3.org/1999/xlink" width="500" zoomAndPan="magnify" viewBox="0 0 375 374.999991" height="500" preserveAspectRatio="xMidYMid meet" version="1.0"><defs><g/><clipPath id="b59c3037cd"><path d="M 28.355469 149.296875 L 100.355469 149.296875 L 100.355469 192 L 28.355469 192 Z M 28.355469 149.296875 " clip-rule="nonzero"/></clipPath><clipPath id="a7fe542a1d"><path d="M 28.355469 149.296875 L 100.355469 149.296875 L 100.355469 207 L 28.355469 207 Z M 28.355469 149.296875 " clip-rule="nonzero"/></clipPath><clipPath id="c07f246a04"><path d="M 28.355469 149.296875 L 100.355469 149.296875 L 100.355469 199 L 28.355469 199 Z M 28.355469 149.296875 " clip-rule="nonzero"/></clipPath><clipPath id="b05d2eda2e"><path d="M 30 149.296875 L 99 149.296875 L 99 218 L 30 218 Z M 30 149.296875 " clip-rule="nonzero"/></clipPath><clipPath id="e931517ad4"><path d="M 28.355469 158 L 100.355469 158 L 100.355469 225.796875 L 28.355469 225.796875 Z M 28.355469 158 " clip-rule="nonzero"/></clipPath><clipPath id="82759b2de9"><path d="M 28.355469 223 L 100.355469 223 L 100.355469 225.796875 L 28.355469 225.796875 Z M 28.355469 223 " clip-rule="nonzero"/></clipPath></defs><rect x="-37.5" width="450" fill="#ffffff" y="-37.499999" height="449.999989" fill-opacity="1"/><rect x="-37.5" width="450" fill="#ffffff" y="-37.499999" height="449.999989" fill-opacity="1"/><rect x="-37.5" width="450" fill="#f5c500" y="-37.499999" height="449.999989" fill-opacity="1"/><g clip-path="url(#b59c3037cd)"><path stroke-linecap="butt" transform="matrix(1.030043, 0, 0, 1.034822, 28.355849, 149.363868)" fill="none" stroke-linejoin="miter" d="M 9.798981 11.999529 C 16.701 5.099191 25.499178 0.999756 34.900334 0.999756 C 44.400091 0.999756 53.099669 5.099191 60.001688 11.999529 " stroke="#000000" stroke-width="2" stroke-opacity="1" stroke-miterlimit="10"/></g><g clip-path="url(#a7fe542a1d)"><path stroke-linecap="butt" transform="matrix(1.030043, 0, 0, 1.034822, 28.355849, 149.363868)" fill="none" stroke-linejoin="miter" d="M 24.501798 26.698609 C 27.698722 23.501352 31.301424 21.798916 34.900334 21.798916 C 38.499244 21.798916 42.098154 23.501352 45.298871 26.698609 " stroke="#000000" stroke-width="2" stroke-opacity="1" stroke-miterlimit="10"/><path stroke-linecap="butt" transform="matrix(1.030043, 0, 0, 1.034822, 28.355849, 149.363868)" fill="none" stroke-linejoin="miter" d="M 24.501798 26.698609 C 27.698722 23.501352 31.301424 21.798916 34.900334 21.798916 C 38.499244 21.798916 42.098154 23.501352 45.298871 26.698609 " stroke="#000000" stroke-width="2" stroke-opacity="1" stroke-miterlimit="10"/></g><g clip-path="url(#c07f246a04)"><path stroke-linecap="butt" transform="matrix(1.030043, 0, 0, 1.034822, 28.355849, 149.363868)" fill="none" stroke-linejoin="miter" d="M 17.201586 19.299997 C 22.400854 14.200239 28.498901 11.399336 34.998935 11.399336 C 41.400368 11.399336 47.600808 14.200239 52.800076 19.299997 " stroke="#000000" stroke-width="2" stroke-opacity="1" stroke-miterlimit="10"/></g><g clip-path="url(#b05d2eda2e)"><path stroke-linecap="butt" transform="matrix(1.030043, 0, 0, 1.034822, 28.355849, 149.363868)" fill="none" stroke-linejoin="miter" d="M 39.500416 33.300738 C 39.500416 33.595173 39.470078 33.889608 39.413193 34.176493 C 39.356308 34.467152 39.269085 34.750262 39.159108 35.022048 C 39.045338 35.293834 38.905022 35.554295 38.741953 35.799657 C 38.578883 36.04502 38.389267 36.271508 38.180689 36.482897 C 37.972112 36.690511 37.744573 36.879251 37.501865 37.041567 C 37.255364 37.203884 36.993694 37.343552 36.720647 37.456796 C 36.4476 37.57004 36.166969 37.65686 35.878752 37.713482 C 35.586744 37.770104 35.294735 37.800303 34.998935 37.800303 C 34.703134 37.800303 34.411125 37.770104 34.122909 37.713482 C 33.830901 37.65686 33.550269 37.57004 33.277222 37.456796 C 33.004175 37.343552 32.746298 37.203884 32.499797 37.041567 C 32.253296 36.879251 32.025757 36.690511 31.81718 36.482897 C 31.608602 36.271508 31.422779 36.04502 31.259709 35.799657 C 31.092847 35.554295 30.956323 35.293834 30.842554 35.022048 C 30.728784 34.750262 30.645353 34.467152 30.584676 34.176493 C 30.527792 33.889608 30.501245 33.595173 30.501245 33.300738 C 30.501245 33.006304 30.527792 32.711869 30.584676 32.421209 C 30.645353 32.13055 30.728784 31.851214 30.842554 31.579429 C 30.956323 31.303868 31.092847 31.047181 31.259709 30.798045 C 31.422779 30.552682 31.608602 30.326194 31.81718 30.11858 C 32.025757 29.910966 32.253296 29.722226 32.499797 29.559909 C 32.746298 29.393818 33.004175 29.25415 33.277222 29.140906 C 33.550269 29.027662 33.830901 28.944617 34.122909 28.887995 C 34.411125 28.827598 34.703134 28.801174 34.998935 28.801174 C 35.294735 28.801174 35.586744 28.827598 35.878752 28.887995 C 36.166969 28.944617 36.4476 29.027662 36.720647 29.140906 C 36.993694 29.25415 37.255364 29.393818 37.501865 29.559909 C 37.744573 29.722226 37.972112 29.910966 38.180689 30.11858 C 38.389267 30.326194 38.578883 30.552682 38.741953 30.798045 C 38.905022 31.047181 39.045338 31.303868 39.159108 31.579429 C 39.269085 31.851214 39.356308 32.13055 39.413193 32.421209 C 39.470078 32.711869 39.500416 33.006304 39.500416 33.300738 Z M 39.500416 33.300738 " stroke="#000000" stroke-width="2" stroke-opacity="1" stroke-miterlimit="10"/></g><g clip-path="url(#e931517ad4)"><path stroke-linecap="butt" transform="matrix(1.030043, 0, 0, 1.034822, 28.355849, 149.363868)" fill="none" stroke-linejoin="miter" d="M 37.001279 37.298254 L 53.600255 72.800269 L 16.299014 72.800269 L 32.901783 37.298254 " stroke="#000000" stroke-width="2" stroke-opacity="1" stroke-miterlimit="10"/></g><g clip-path="url(#82759b2de9)"><path stroke-linecap="butt" transform="matrix(1.030043, 0, 0, 1.034822, 28.355849, 149.363868)" fill="none" stroke-linejoin="miter" d="M -0.000369429 72.800269 L 69.899638 72.800269 " stroke="#000000" stroke-width="2" stroke-opacity="1" stroke-miterlimit="10"/></g><g fill="#000000" fill-opacity="1"><g transform="translate(107.997523, 189.142077)"><g><path d="M 20.328125 0 L 19.25 -13.390625 L 19.125 -13.390625 L 14.484375 -0.140625 L 11.421875 -0.140625 L 6.796875 -13.390625 L 6.65625 -13.390625 L 5.59375 0 L 0.4375 0 L 2.46875 -22.59375 L 7.9375 -22.59375 L 12.953125 -9.5625 L 17.96875 -22.59375 L 23.453125 -22.59375 L 25.46875 0 Z M 20.328125 0 "/></g></g></g><g fill="#000000" fill-opacity="1"><g transform="translate(140.727231, 189.142077)"><g><path d="M 0.625 -11.3125 C 0.625 -14.582031 1.738281 -17.347656 3.96875 -19.609375 C 6.195312 -21.878906 8.882812 -23.015625 12.03125 -23.015625 C 15.1875 -23.015625 17.867188 -21.882812 20.078125 -19.625 C 22.285156 -17.375 23.390625 -14.601562 23.390625 -11.3125 C 23.390625 -8.007812 22.300781 -5.226562 20.125 -2.96875 C 17.957031 -0.71875 15.257812 0.40625 12.03125 0.40625 C 8.71875 0.40625 5.988281 -0.707031 3.84375 -2.9375 C 1.695312 -5.175781 0.625 -7.96875 0.625 -11.3125 Z M 6.1875 -11.3125 C 6.1875 -10.125 6.367188 -9.039062 6.734375 -8.0625 C 7.097656 -7.082031 7.738281 -6.253906 8.65625 -5.578125 C 9.570312 -4.910156 10.695312 -4.578125 12.03125 -4.578125 C 13.945312 -4.578125 15.390625 -5.234375 16.359375 -6.546875 C 17.335938 -7.859375 17.828125 -9.445312 17.828125 -11.3125 C 17.828125 -13.15625 17.328125 -14.738281 16.328125 -16.0625 C 15.335938 -17.382812 13.90625 -18.046875 12.03125 -18.046875 C 10.164062 -18.046875 8.722656 -17.382812 7.703125 -16.0625 C 6.691406 -14.738281 6.1875 -13.15625 6.1875 -11.3125 Z M 6.1875 -11.3125 "/></g></g></g><g fill="#000000" fill-opacity="1"><g transform="translate(171.567246, 189.142077)"><g><path d="M 20.328125 0 L 19.25 -13.390625 L 19.125 -13.390625 L 14.484375 -0.140625 L 11.421875 -0.140625 L 6.796875 -13.390625 L 6.65625 -13.390625 L 5.59375 0 L 0.4375 0 L 2.46875 -22.59375 L 7.9375 -22.59375 L 12.953125 -9.5625 L 17.96875 -22.59375 L 23.453125 -22.59375 L 25.46875 0 Z M 20.328125 0 "/></g></g></g><g fill="#000000" fill-opacity="1"><g transform="translate(204.296951, 189.142077)"><g><path d="M 1.640625 -22.59375 L 8.65625 -22.59375 C 10.769531 -22.59375 12.457031 -22.140625 13.71875 -21.234375 C 14.976562 -20.335938 15.609375 -18.875 15.609375 -16.84375 C 15.609375 -14.582031 14.671875 -12.96875 12.796875 -12 C 16.003906 -11.425781 17.609375 -9.523438 17.609375 -6.296875 C 17.609375 -4.398438 16.953125 -2.875 15.640625 -1.71875 C 14.328125 -0.570312 12.519531 0 10.21875 0 L 1.640625 0 Z M 6.796875 -13.75 L 7.203125 -13.75 C 8.347656 -13.75 9.203125 -13.945312 9.765625 -14.34375 C 10.335938 -14.75 10.625 -15.410156 10.625 -16.328125 C 10.625 -17.859375 9.484375 -18.625 7.203125 -18.625 L 6.796875 -18.625 Z M 6.796875 -3.96875 L 8.40625 -3.96875 C 10.925781 -3.96875 12.1875 -4.804688 12.1875 -6.484375 C 12.1875 -7.492188 11.867188 -8.21875 11.234375 -8.65625 C 10.609375 -9.09375 9.664062 -9.3125 8.40625 -9.3125 L 6.796875 -9.3125 Z M 6.796875 -3.96875 "/></g></g></g><g fill="#000000" fill-opacity="1"><g transform="translate(229.358355, 189.142077)"><g><path d="M 13.125 -22.59375 L 22.234375 0 L 16.703125 0 L 15.03125 -4.515625 L 6.4375 -4.515625 L 4.765625 0 L -0.765625 0 L 8.359375 -22.59375 Z M 13.28125 -9.03125 L 10.765625 -15.609375 L 10.703125 -15.609375 L 8.1875 -9.03125 Z M 13.28125 -9.03125 "/></g></g></g><g fill="#000000" fill-opacity="1"><g transform="translate(257.651409, 189.142077)"><g><path d="M 9.96875 -23.015625 C 11.195312 -23.015625 12.394531 -22.832031 13.5625 -22.46875 C 14.726562 -22.113281 15.59375 -21.765625 16.15625 -21.421875 L 16.984375 -20.875 L 14.90625 -16.765625 C 14.738281 -16.867188 14.507812 -17.007812 14.21875 -17.1875 C 13.925781 -17.363281 13.375 -17.597656 12.5625 -17.890625 C 11.757812 -18.179688 11.015625 -18.328125 10.328125 -18.328125 C 9.460938 -18.328125 8.796875 -18.144531 8.328125 -17.78125 C 7.867188 -17.414062 7.640625 -16.921875 7.640625 -16.296875 C 7.640625 -15.984375 7.75 -15.691406 7.96875 -15.421875 C 8.1875 -15.160156 8.5625 -14.878906 9.09375 -14.578125 C 9.625 -14.285156 10.085938 -14.046875 10.484375 -13.859375 C 10.890625 -13.671875 11.515625 -13.394531 12.359375 -13.03125 C 13.816406 -12.414062 15.0625 -11.570312 16.09375 -10.5 C 17.125 -9.4375 17.640625 -8.226562 17.640625 -6.875 C 17.640625 -5.582031 17.40625 -4.453125 16.9375 -3.484375 C 16.476562 -2.515625 15.84375 -1.753906 15.03125 -1.203125 C 14.21875 -0.660156 13.316406 -0.257812 12.328125 0 C 11.335938 0.269531 10.269531 0.40625 9.125 0.40625 C 8.132812 0.40625 7.164062 0.304688 6.21875 0.109375 C 5.269531 -0.0859375 4.472656 -0.335938 3.828125 -0.640625 C 3.191406 -0.941406 2.617188 -1.238281 2.109375 -1.53125 C 1.597656 -1.820312 1.222656 -2.066406 0.984375 -2.265625 L 0.625 -2.578125 L 3.203125 -6.90625 C 3.421875 -6.71875 3.722656 -6.484375 4.109375 -6.203125 C 4.492188 -5.921875 5.171875 -5.539062 6.140625 -5.0625 C 7.117188 -4.59375 7.984375 -4.359375 8.734375 -4.359375 C 10.910156 -4.359375 12 -5.097656 12 -6.578125 C 12 -6.890625 11.921875 -7.175781 11.765625 -7.4375 C 11.609375 -7.695312 11.332031 -7.957031 10.9375 -8.21875 C 10.550781 -8.488281 10.207031 -8.703125 9.90625 -8.859375 C 9.601562 -9.015625 9.109375 -9.25 8.421875 -9.5625 C 7.734375 -9.882812 7.226562 -10.128906 6.90625 -10.296875 C 5.53125 -10.972656 4.46875 -11.816406 3.71875 -12.828125 C 2.976562 -13.847656 2.609375 -14.941406 2.609375 -16.109375 C 2.609375 -18.128906 3.351562 -19.785156 4.84375 -21.078125 C 6.34375 -22.367188 8.050781 -23.015625 9.96875 -23.015625 Z M 9.96875 -23.015625 "/></g></g></g><g fill="#000000" fill-opacity="1"><g transform="translate(282.877139, 189.142077)"><g><path d="M 13.125 -22.59375 L 22.234375 0 L 16.703125 0 L 15.03125 -4.515625 L 6.4375 -4.515625 L 4.765625 0 L -0.765625 0 L 8.359375 -22.59375 Z M 13.28125 -9.03125 L 10.765625 -15.609375 L 10.703125 -15.609375 L 8.1875 -9.03125 Z M 13.28125 -9.03125 "/></g></g></g><g fill="#000000" fill-opacity="1"><g transform="translate(88.269344, 213.441519)"><g><path d="M 7.265625 -2.28125 L 7.21875 -0.390625 C 6.875 -0.203125 6.488281 -0.0625 6.0625 0.03125 C 5.644531 0.132812 5.203125 0.1875 4.734375 0.1875 C 4.097656 0.1875 3.515625 0.0976562 2.984375 -0.078125 C 2.453125 -0.253906 1.988281 -0.519531 1.59375 -0.875 C 1.207031 -1.226562 0.90625 -1.671875 0.6875 -2.203125 C 0.476562 -2.734375 0.375 -3.347656 0.375 -4.046875 C 0.375 -4.753906 0.484375 -5.375 0.703125 -5.90625 C 0.929688 -6.4375 1.242188 -6.878906 1.640625 -7.234375 C 2.046875 -7.585938 2.519531 -7.851562 3.0625 -8.03125 C 3.613281 -8.207031 4.210938 -8.296875 4.859375 -8.296875 C 5.253906 -8.296875 5.628906 -8.253906 5.984375 -8.171875 C 6.347656 -8.085938 6.71875 -7.9375 7.09375 -7.71875 L 7.15625 -5.84375 L 6.171875 -5.84375 L 5.921875 -7.390625 C 5.578125 -7.546875 5.226562 -7.625 4.875 -7.625 C 4.507812 -7.625 4.164062 -7.546875 3.84375 -7.390625 C 3.53125 -7.234375 3.253906 -7.003906 3.015625 -6.703125 C 2.773438 -6.398438 2.585938 -6.023438 2.453125 -5.578125 C 2.328125 -5.140625 2.265625 -4.628906 2.265625 -4.046875 C 2.265625 -3.472656 2.328125 -2.960938 2.453125 -2.515625 C 2.585938 -2.078125 2.773438 -1.707031 3.015625 -1.40625 C 3.253906 -1.101562 3.53125 -0.875 3.84375 -0.71875 C 4.164062 -0.570312 4.507812 -0.5 4.875 -0.5 C 5.257812 -0.5 5.648438 -0.570312 6.046875 -0.71875 L 6.28125 -2.28125 Z M 7.265625 -2.28125 "/></g></g></g><g fill="#000000" fill-opacity="1"><g transform="translate(101.109071, 213.441519)"><g><path d="M 8.453125 -7.390625 C 8.429688 -6.867188 8.421875 -6.347656 8.421875 -5.828125 C 8.421875 -5.316406 8.421875 -4.800781 8.421875 -4.28125 L 8.421875 -3.84375 C 8.421875 -3.320312 8.421875 -2.800781 8.421875 -2.28125 C 8.421875 -1.769531 8.429688 -1.253906 8.453125 -0.734375 L 9.453125 -0.625 L 9.453125 0 L 5.59375 0 L 5.59375 -0.625 L 6.59375 -0.734375 C 6.601562 -1.222656 6.609375 -1.722656 6.609375 -2.234375 C 6.609375 -2.753906 6.609375 -3.296875 6.609375 -3.859375 L 3.234375 -3.859375 C 3.234375 -3.304688 3.234375 -2.769531 3.234375 -2.25 C 3.234375 -1.738281 3.242188 -1.234375 3.265625 -0.734375 L 4.265625 -0.625 L 4.265625 0 L 0.390625 0 L 0.390625 -0.625 L 1.40625 -0.734375 C 1.414062 -1.242188 1.421875 -1.753906 1.421875 -2.265625 C 1.421875 -2.785156 1.421875 -3.3125 1.421875 -3.84375 L 1.421875 -4.28125 C 1.421875 -4.800781 1.421875 -5.316406 1.421875 -5.828125 C 1.421875 -6.347656 1.414062 -6.867188 1.40625 -7.390625 L 0.390625 -7.5 L 0.390625 -8.109375 L 4.265625 -8.109375 L 4.265625 -7.5 L 3.265625 -7.390625 C 3.242188 -6.910156 3.234375 -6.4375 3.234375 -5.96875 C 3.234375 -5.5 3.234375 -5.019531 3.234375 -4.53125 L 6.609375 -4.53125 C 6.609375 -5.007812 6.609375 -5.484375 6.609375 -5.953125 C 6.609375 -6.429688 6.601562 -6.910156 6.59375 -7.390625 L 5.59375 -7.5 L 5.59375 -8.109375 L 9.453125 -8.109375 L 9.453125 -7.5 Z M 8.453125 -7.390625 "/></g></g></g><g fill="#000000" fill-opacity="1"><g transform="translate(116.091715, 213.441519)"><g><path d="M 4.765625 -3.203125 L 3.78125 -5.96875 L 2.75 -3.203125 Z M 8.296875 -0.609375 L 8.296875 0 L 4.640625 0 L 4.640625 -0.609375 L 5.65625 -0.734375 L 5.015625 -2.53125 L 2.5 -2.53125 L 1.84375 -0.765625 L 2.84375 -0.625 L 2.84375 0 L 0.0625 0 L 0.0625 -0.625 L 1.171875 -0.78125 L 3.921875 -8.109375 L 4.65625 -8.109375 L 7.46875 -0.703125 Z M 8.296875 -0.609375 "/></g></g></g><g fill="#000000" fill-opacity="1"><g transform="translate(129.563167, 213.441519)"><g><path d="M 9.9375 -7.390625 C 9.914062 -6.867188 9.90625 -6.347656 9.90625 -5.828125 C 9.90625 -5.316406 9.90625 -4.800781 9.90625 -4.28125 L 9.90625 -3.84375 C 9.90625 -3.320312 9.90625 -2.800781 9.90625 -2.28125 C 9.90625 -1.769531 9.914062 -1.253906 9.9375 -0.734375 L 10.9375 -0.625 L 10.9375 0 L 7.078125 0 L 7.078125 -0.625 L 8.078125 -0.734375 C 8.097656 -1.242188 8.109375 -1.753906 8.109375 -2.265625 C 8.109375 -2.785156 8.109375 -3.3125 8.109375 -3.84375 L 8.109375 -6.015625 L 5.328125 0 L 4.828125 0 L 2.03125 -6.015625 L 2.03125 -0.78125 L 3.203125 -0.625 L 3.203125 0 L 0.1875 0 L 0.1875 -0.625 L 1.34375 -0.78125 L 1.34375 -7.390625 L 0.328125 -7.5 L 0.328125 -8.109375 L 2.8125 -8.109375 L 5.609375 -2.296875 L 8.34375 -8.109375 L 10.9375 -8.109375 L 10.9375 -7.5 Z M 9.9375 -7.390625 "/></g></g></g><g fill="#000000" fill-opacity="1"><g transform="translate(146.032227, 213.441519)"><g><path d="M 3.625 -0.6875 C 4.0625 -0.6875 4.421875 -0.722656 4.703125 -0.796875 C 4.984375 -0.867188 5.203125 -0.976562 5.359375 -1.125 C 5.515625 -1.269531 5.625 -1.441406 5.6875 -1.640625 C 5.75 -1.847656 5.78125 -2.078125 5.78125 -2.328125 C 5.78125 -2.898438 5.625 -3.3125 5.3125 -3.5625 C 5.007812 -3.8125 4.484375 -3.9375 3.734375 -3.9375 L 3.234375 -3.9375 C 3.234375 -3.363281 3.234375 -2.804688 3.234375 -2.265625 C 3.234375 -1.734375 3.242188 -1.207031 3.265625 -0.6875 Z M 3.265625 -7.4375 C 3.242188 -6.96875 3.234375 -6.492188 3.234375 -6.015625 C 3.234375 -5.546875 3.234375 -5.070312 3.234375 -4.59375 L 3.6875 -4.59375 C 4.28125 -4.59375 4.710938 -4.710938 4.984375 -4.953125 C 5.265625 -5.203125 5.40625 -5.5625 5.40625 -6.03125 C 5.40625 -6.5 5.28125 -6.847656 5.03125 -7.078125 C 4.789062 -7.316406 4.398438 -7.4375 3.859375 -7.4375 Z M 4.28125 -8.109375 C 5.257812 -8.109375 5.972656 -7.921875 6.421875 -7.546875 C 6.878906 -7.179688 7.109375 -6.691406 7.109375 -6.078125 C 7.109375 -5.878906 7.082031 -5.6875 7.03125 -5.5 C 6.988281 -5.320312 6.90625 -5.15625 6.78125 -5 C 6.664062 -4.84375 6.507812 -4.703125 6.3125 -4.578125 C 6.125 -4.460938 5.894531 -4.367188 5.625 -4.296875 C 5.988281 -4.234375 6.289062 -4.132812 6.53125 -4 C 6.78125 -3.875 6.984375 -3.722656 7.140625 -3.546875 C 7.296875 -3.378906 7.40625 -3.1875 7.46875 -2.96875 C 7.539062 -2.757812 7.578125 -2.535156 7.578125 -2.296875 C 7.578125 -2.023438 7.523438 -1.75 7.421875 -1.46875 C 7.316406 -1.195312 7.117188 -0.953125 6.828125 -0.734375 C 6.546875 -0.515625 6.148438 -0.335938 5.640625 -0.203125 C 5.140625 -0.0664062 4.488281 0 3.6875 0 L 0.390625 0 L 0.390625 -0.625 L 1.40625 -0.734375 C 1.414062 -1.242188 1.421875 -1.753906 1.421875 -2.265625 C 1.421875 -2.785156 1.421875 -3.3125 1.421875 -3.84375 L 1.421875 -4.28125 C 1.421875 -4.800781 1.421875 -5.316406 1.421875 -5.828125 C 1.421875 -6.347656 1.414062 -6.867188 1.40625 -7.390625 L 0.390625 -7.5 L 0.390625 -8.109375 Z M 4.28125 -8.109375 "/></g></g></g><g fill="#000000" fill-opacity="1"><g transform="translate(159.045377, 213.441519)"><g><path d="M 7.09375 -2.15625 L 7.015625 0 L 0.390625 0 L 0.390625 -0.625 L 1.40625 -0.734375 C 1.414062 -1.242188 1.421875 -1.753906 1.421875 -2.265625 C 1.421875 -2.785156 1.421875 -3.3125 1.421875 -3.84375 L 1.421875 -4.28125 C 1.421875 -4.800781 1.421875 -5.316406 1.421875 -5.828125 C 1.421875 -6.347656 1.414062 -6.867188 1.40625 -7.390625 L 0.390625 -7.5 L 0.390625 -8.109375 L 6.765625 -8.109375 L 6.859375 -5.953125 L 5.921875 -5.953125 L 5.65625 -7.4375 L 3.265625 -7.4375 C 3.242188 -6.96875 3.234375 -6.492188 3.234375 -6.015625 C 3.234375 -5.535156 3.234375 -5.046875 3.234375 -4.546875 L 4.8125 -4.546875 L 4.984375 -5.65625 L 5.65625 -5.65625 L 5.65625 -2.78125 L 4.984375 -2.78125 L 4.828125 -3.859375 L 3.234375 -3.859375 C 3.234375 -3.296875 3.234375 -2.753906 3.234375 -2.234375 C 3.234375 -1.710938 3.242188 -1.191406 3.265625 -0.671875 L 5.90625 -0.671875 L 6.171875 -2.15625 Z M 7.09375 -2.15625 "/></g></g></g><g fill="#000000" fill-opacity="1"><g transform="translate(171.587821, 213.441519)"><g><path d="M 3.75 -4.328125 C 4.0625 -4.328125 4.328125 -4.367188 4.546875 -4.453125 C 4.765625 -4.535156 4.941406 -4.648438 5.078125 -4.796875 C 5.222656 -4.941406 5.328125 -5.113281 5.390625 -5.3125 C 5.453125 -5.507812 5.484375 -5.722656 5.484375 -5.953125 C 5.484375 -6.441406 5.34375 -6.8125 5.0625 -7.0625 C 4.789062 -7.3125 4.351562 -7.4375 3.75 -7.4375 L 3.234375 -7.4375 C 3.210938 -6.925781 3.203125 -6.410156 3.203125 -5.890625 C 3.203125 -5.378906 3.203125 -4.859375 3.203125 -4.328125 Z M 8.234375 -0.625 L 8.234375 0 C 7.984375 0.0507812 7.757812 0.0820312 7.5625 0.09375 C 7.375 0.113281 7.195312 0.125 7.03125 0.125 C 6.789062 0.125 6.570312 0.109375 6.375 0.078125 C 6.175781 0.046875 6.003906 -0.00390625 5.859375 -0.078125 C 5.710938 -0.148438 5.585938 -0.253906 5.484375 -0.390625 C 5.390625 -0.523438 5.320312 -0.703125 5.28125 -0.921875 L 4.953125 -2.5625 C 4.867188 -2.96875 4.722656 -3.25 4.515625 -3.40625 C 4.316406 -3.5625 4.007812 -3.640625 3.59375 -3.640625 L 3.203125 -3.640625 C 3.203125 -3.148438 3.203125 -2.664062 3.203125 -2.1875 C 3.203125 -1.707031 3.210938 -1.222656 3.234375 -0.734375 L 4.265625 -0.625 L 4.265625 0 L 0.390625 0 L 0.390625 -0.625 L 1.40625 -0.734375 C 1.414062 -1.242188 1.421875 -1.753906 1.421875 -2.265625 C 1.421875 -2.785156 1.421875 -3.3125 1.421875 -3.84375 L 1.421875 -4.28125 C 1.421875 -4.800781 1.421875 -5.316406 1.421875 -5.828125 C 1.421875 -6.347656 1.414062 -6.867188 1.40625 -7.390625 L 0.390625 -7.5 L 0.390625 -8.109375 L 4.265625 -8.109375 C 5.191406 -8.109375 5.914062 -7.925781 6.4375 -7.5625 C 6.957031 -7.207031 7.21875 -6.710938 7.21875 -6.078125 C 7.21875 -5.878906 7.1875 -5.671875 7.125 -5.453125 C 7.0625 -5.242188 6.957031 -5.039062 6.8125 -4.84375 C 6.664062 -4.65625 6.472656 -4.484375 6.234375 -4.328125 C 6.003906 -4.171875 5.710938 -4.050781 5.359375 -3.96875 C 5.753906 -3.851562 6.082031 -3.660156 6.34375 -3.390625 C 6.601562 -3.117188 6.773438 -2.757812 6.859375 -2.3125 L 7.203125 -0.734375 Z M 8.234375 -0.625 "/></g></g></g><g fill="#000000" fill-opacity="1"><g transform="translate(185.034513, 213.441519)"><g/></g></g><g fill="#000000" fill-opacity="1"><g transform="translate(192.894761, 213.441519)"><g><path d="M 2.296875 -4.046875 C 2.296875 -3.597656 2.332031 -3.160156 2.40625 -2.734375 C 2.476562 -2.316406 2.597656 -1.941406 2.765625 -1.609375 C 2.929688 -1.273438 3.144531 -1.003906 3.40625 -0.796875 C 3.675781 -0.597656 4.003906 -0.5 4.390625 -0.5 C 4.765625 -0.5 5.082031 -0.597656 5.34375 -0.796875 C 5.613281 -1.003906 5.832031 -1.273438 6 -1.609375 C 6.164062 -1.941406 6.285156 -2.316406 6.359375 -2.734375 C 6.441406 -3.160156 6.484375 -3.597656 6.484375 -4.046875 C 6.484375 -4.492188 6.441406 -4.929688 6.359375 -5.359375 C 6.285156 -5.796875 6.164062 -6.179688 6 -6.515625 C 5.832031 -6.847656 5.613281 -7.113281 5.34375 -7.3125 C 5.082031 -7.519531 4.765625 -7.625 4.390625 -7.625 C 4.003906 -7.625 3.675781 -7.519531 3.40625 -7.3125 C 3.144531 -7.113281 2.929688 -6.847656 2.765625 -6.515625 C 2.597656 -6.179688 2.476562 -5.796875 2.40625 -5.359375 C 2.332031 -4.929688 2.296875 -4.492188 2.296875 -4.046875 Z M 4.390625 -8.296875 C 4.878906 -8.296875 5.359375 -8.207031 5.828125 -8.03125 C 6.304688 -7.851562 6.734375 -7.585938 7.109375 -7.234375 C 7.492188 -6.890625 7.800781 -6.453125 8.03125 -5.921875 C 8.257812 -5.390625 8.375 -4.765625 8.375 -4.046875 C 8.375 -3.335938 8.257812 -2.71875 8.03125 -2.1875 C 7.800781 -1.664062 7.492188 -1.226562 7.109375 -0.875 C 6.734375 -0.519531 6.304688 -0.253906 5.828125 -0.078125 C 5.359375 0.0976562 4.878906 0.1875 4.390625 0.1875 C 3.898438 0.1875 3.414062 0.0976562 2.9375 -0.078125 C 2.457031 -0.253906 2.03125 -0.519531 1.65625 -0.875 C 1.28125 -1.226562 0.972656 -1.664062 0.734375 -2.1875 C 0.503906 -2.71875 0.390625 -3.335938 0.390625 -4.046875 C 0.390625 -4.765625 0.503906 -5.390625 0.734375 -5.921875 C 0.972656 -6.453125 1.28125 -6.890625 1.65625 -7.234375 C 2.039062 -7.585938 2.46875 -7.851562 2.9375 -8.03125 C 3.414062 -8.207031 3.898438 -8.296875 4.390625 -8.296875 Z M 4.390625 -8.296875 "/></g></g></g><g fill="#000000" fill-opacity="1"><g transform="translate(206.799755, 213.441519)"><g><path d="M 3.265625 -7.4375 C 3.242188 -6.96875 3.234375 -6.492188 3.234375 -6.015625 C 3.234375 -5.535156 3.234375 -5.046875 3.234375 -4.546875 L 4.875 -4.546875 L 5.046875 -5.65625 L 5.71875 -5.65625 L 5.71875 -2.65625 L 5.046875 -2.65625 L 4.875 -3.859375 L 3.234375 -3.859375 C 3.234375 -3.316406 3.234375 -2.785156 3.234375 -2.265625 C 3.234375 -1.753906 3.242188 -1.25 3.265625 -0.75 L 4.390625 -0.625 L 4.390625 0 L 0.390625 0 L 0.390625 -0.625 L 1.40625 -0.734375 C 1.414062 -1.242188 1.421875 -1.753906 1.421875 -2.265625 C 1.421875 -2.785156 1.421875 -3.3125 1.421875 -3.84375 L 1.421875 -4.28125 C 1.421875 -4.800781 1.421875 -5.316406 1.421875 -5.828125 C 1.421875 -6.347656 1.414062 -6.867188 1.40625 -7.390625 L 0.390625 -7.5 L 0.390625 -8.109375 L 6.765625 -8.109375 L 6.859375 -5.953125 L 5.921875 -5.953125 L 5.65625 -7.4375 Z M 3.265625 -7.4375 "/></g></g></g><g fill="#000000" fill-opacity="1"><g transform="translate(219.156398, 213.441519)"><g/></g></g><g fill="#000000" fill-opacity="1"><g transform="translate(227.016646, 213.441519)"><g><path d="M 7.265625 -2.28125 L 7.21875 -0.390625 C 6.875 -0.203125 6.488281 -0.0625 6.0625 0.03125 C 5.644531 0.132812 5.203125 0.1875 4.734375 0.1875 C 4.097656 0.1875 3.515625 0.0976562 2.984375 -0.078125 C 2.453125 -0.253906 1.988281 -0.519531 1.59375 -0.875 C 1.207031 -1.226562 0.90625 -1.671875 0.6875 -2.203125 C 0.476562 -2.734375 0.375 -3.347656 0.375 -4.046875 C 0.375 -4.753906 0.484375 -5.375 0.703125 -5.90625 C 0.929688 -6.4375 1.242188 -6.878906 1.640625 -7.234375 C 2.046875 -7.585938 2.519531 -7.851562 3.0625 -8.03125 C 3.613281 -8.207031 4.210938 -8.296875 4.859375 -8.296875 C 5.253906 -8.296875 5.628906 -8.253906 5.984375 -8.171875 C 6.347656 -8.085938 6.71875 -7.9375 7.09375 -7.71875 L 7.15625 -5.84375 L 6.171875 -5.84375 L 5.921875 -7.390625 C 5.578125 -7.546875 5.226562 -7.625 4.875 -7.625 C 4.507812 -7.625 4.164062 -7.546875 3.84375 -7.390625 C 3.53125 -7.234375 3.253906 -7.003906 3.015625 -6.703125 C 2.773438 -6.398438 2.585938 -6.023438 2.453125 -5.578125 C 2.328125 -5.140625 2.265625 -4.628906 2.265625 -4.046875 C 2.265625 -3.472656 2.328125 -2.960938 2.453125 -2.515625 C 2.585938 -2.078125 2.773438 -1.707031 3.015625 -1.40625 C 3.253906 -1.101562 3.53125 -0.875 3.84375 -0.71875 C 4.164062 -0.570312 4.507812 -0.5 4.875 -0.5 C 5.257812 -0.5 5.648438 -0.570312 6.046875 -0.71875 L 6.28125 -2.28125 Z M 7.265625 -2.28125 "/></g></g></g><g fill="#000000" fill-opacity="1"><g transform="translate(239.856378, 213.441519)"><g><path d="M 2.296875 -4.046875 C 2.296875 -3.597656 2.332031 -3.160156 2.40625 -2.734375 C 2.476562 -2.316406 2.597656 -1.941406 2.765625 -1.609375 C 2.929688 -1.273438 3.144531 -1.003906 3.40625 -0.796875 C 3.675781 -0.597656 4.003906 -0.5 4.390625 -0.5 C 4.765625 -0.5 5.082031 -0.597656 5.34375 -0.796875 C 5.613281 -1.003906 5.832031 -1.273438 6 -1.609375 C 6.164062 -1.941406 6.285156 -2.316406 6.359375 -2.734375 C 6.441406 -3.160156 6.484375 -3.597656 6.484375 -4.046875 C 6.484375 -4.492188 6.441406 -4.929688 6.359375 -5.359375 C 6.285156 -5.796875 6.164062 -6.179688 6 -6.515625 C 5.832031 -6.847656 5.613281 -7.113281 5.34375 -7.3125 C 5.082031 -7.519531 4.765625 -7.625 4.390625 -7.625 C 4.003906 -7.625 3.675781 -7.519531 3.40625 -7.3125 C 3.144531 -7.113281 2.929688 -6.847656 2.765625 -6.515625 C 2.597656 -6.179688 2.476562 -5.796875 2.40625 -5.359375 C 2.332031 -4.929688 2.296875 -4.492188 2.296875 -4.046875 Z M 4.390625 -8.296875 C 4.878906 -8.296875 5.359375 -8.207031 5.828125 -8.03125 C 6.304688 -7.851562 6.734375 -7.585938 7.109375 -7.234375 C 7.492188 -6.890625 7.800781 -6.453125 8.03125 -5.921875 C 8.257812 -5.390625 8.375 -4.765625 8.375 -4.046875 C 8.375 -3.335938 8.257812 -2.71875 8.03125 -2.1875 C 7.800781 -1.664062 7.492188 -1.226562 7.109375 -0.875 C 6.734375 -0.519531 6.304688 -0.253906 5.828125 -0.078125 C 5.359375 0.0976562 4.878906 0.1875 4.390625 0.1875 C 3.898438 0.1875 3.414062 0.0976562 2.9375 -0.078125 C 2.457031 -0.253906 2.03125 -0.519531 1.65625 -0.875 C 1.28125 -1.226562 0.972656 -1.664062 0.734375 -2.1875 C 0.503906 -2.71875 0.390625 -3.335938 0.390625 -4.046875 C 0.390625 -4.765625 0.503906 -5.390625 0.734375 -5.921875 C 0.972656 -6.453125 1.28125 -6.890625 1.65625 -7.234375 C 2.039062 -7.585938 2.46875 -7.851562 2.9375 -8.03125 C 3.414062 -8.207031 3.898438 -8.296875 4.390625 -8.296875 Z M 4.390625 -8.296875 "/></g></g></g><g fill="#000000" fill-opacity="1"><g transform="translate(253.761384, 213.441519)"><g><path d="M 9.9375 -7.390625 C 9.914062 -6.867188 9.90625 -6.347656 9.90625 -5.828125 C 9.90625 -5.316406 9.90625 -4.800781 9.90625 -4.28125 L 9.90625 -3.84375 C 9.90625 -3.320312 9.90625 -2.800781 9.90625 -2.28125 C 9.90625 -1.769531 9.914062 -1.253906 9.9375 -0.734375 L 10.9375 -0.625 L 10.9375 0 L 7.078125 0 L 7.078125 -0.625 L 8.078125 -0.734375 C 8.097656 -1.242188 8.109375 -1.753906 8.109375 -2.265625 C 8.109375 -2.785156 8.109375 -3.3125 8.109375 -3.84375 L 8.109375 -6.015625 L 5.328125 0 L 4.828125 0 L 2.03125 -6.015625 L 2.03125 -0.78125 L 3.203125 -0.625 L 3.203125 0 L 0.1875 0 L 0.1875 -0.625 L 1.34375 -0.78125 L 1.34375 -7.390625 L 0.328125 -7.5 L 0.328125 -8.109375 L 2.8125 -8.109375 L 5.609375 -2.296875 L 8.34375 -8.109375 L 10.9375 -8.109375 L 10.9375 -7.5 Z M 9.9375 -7.390625 "/></g></g></g><g fill="#000000" fill-opacity="1"><g transform="translate(270.230438, 213.441519)"><g><path d="M 9.9375 -7.390625 C 9.914062 -6.867188 9.90625 -6.347656 9.90625 -5.828125 C 9.90625 -5.316406 9.90625 -4.800781 9.90625 -4.28125 L 9.90625 -3.84375 C 9.90625 -3.320312 9.90625 -2.800781 9.90625 -2.28125 C 9.90625 -1.769531 9.914062 -1.253906 9.9375 -0.734375 L 10.9375 -0.625 L 10.9375 0 L 7.078125 0 L 7.078125 -0.625 L 8.078125 -0.734375 C 8.097656 -1.242188 8.109375 -1.753906 8.109375 -2.265625 C 8.109375 -2.785156 8.109375 -3.3125 8.109375 -3.84375 L 8.109375 -6.015625 L 5.328125 0 L 4.828125 0 L 2.03125 -6.015625 L 2.03125 -0.78125 L 3.203125 -0.625 L 3.203125 0 L 0.1875 0 L 0.1875 -0.625 L 1.34375 -0.78125 L 1.34375 -7.390625 L 0.328125 -7.5 L 0.328125 -8.109375 L 2.8125 -8.109375 L 5.609375 -2.296875 L 8.34375 -8.109375 L 10.9375 -8.109375 L 10.9375 -7.5 Z M 9.9375 -7.390625 "/></g></g></g><g fill="#000000" fill-opacity="1"><g transform="translate(286.699492, 213.441519)"><g><path d="M 7.09375 -2.15625 L 7.015625 0 L 0.390625 0 L 0.390625 -0.625 L 1.40625 -0.734375 C 1.414062 -1.242188 1.421875 -1.753906 1.421875 -2.265625 C 1.421875 -2.785156 1.421875 -3.3125 1.421875 -3.84375 L 1.421875 -4.28125 C 1.421875 -4.800781 1.421875 -5.316406 1.421875 -5.828125 C 1.421875 -6.347656 1.414062 -6.867188 1.40625 -7.390625 L 0.390625 -7.5 L 0.390625 -8.109375 L 6.765625 -8.109375 L 6.859375 -5.953125 L 5.921875 -5.953125 L 5.65625 -7.4375 L 3.265625 -7.4375 C 3.242188 -6.96875 3.234375 -6.492188 3.234375 -6.015625 C 3.234375 -5.535156 3.234375 -5.046875 3.234375 -4.546875 L 4.8125 -4.546875 L 4.984375 -5.65625 L 5.65625 -5.65625 L 5.65625 -2.78125 L 4.984375 -2.78125 L 4.828125 -3.859375 L 3.234375 -3.859375 C 3.234375 -3.296875 3.234375 -2.753906 3.234375 -2.234375 C 3.234375 -1.710938 3.242188 -1.191406 3.265625 -0.671875 L 5.90625 -0.671875 L 6.171875 -2.15625 Z M 7.09375 -2.15625 "/></g></g></g><g fill="#000000" fill-opacity="1"><g transform="translate(299.241941, 213.441519)"><g><path d="M 3.75 -4.328125 C 4.0625 -4.328125 4.328125 -4.367188 4.546875 -4.453125 C 4.765625 -4.535156 4.941406 -4.648438 5.078125 -4.796875 C 5.222656 -4.941406 5.328125 -5.113281 5.390625 -5.3125 C 5.453125 -5.507812 5.484375 -5.722656 5.484375 -5.953125 C 5.484375 -6.441406 5.34375 -6.8125 5.0625 -7.0625 C 4.789062 -7.3125 4.351562 -7.4375 3.75 -7.4375 L 3.234375 -7.4375 C 3.210938 -6.925781 3.203125 -6.410156 3.203125 -5.890625 C 3.203125 -5.378906 3.203125 -4.859375 3.203125 -4.328125 Z M 8.234375 -0.625 L 8.234375 0 C 7.984375 0.0507812 7.757812 0.0820312 7.5625 0.09375 C 7.375 0.113281 7.195312 0.125 7.03125 0.125 C 6.789062 0.125 6.570312 0.109375 6.375 0.078125 C 6.175781 0.046875 6.003906 -0.00390625 5.859375 -0.078125 C 5.710938 -0.148438 5.585938 -0.253906 5.484375 -0.390625 C 5.390625 -0.523438 5.320312 -0.703125 5.28125 -0.921875 L 4.953125 -2.5625 C 4.867188 -2.96875 4.722656 -3.25 4.515625 -3.40625 C 4.316406 -3.5625 4.007812 -3.640625 3.59375 -3.640625 L 3.203125 -3.640625 C 3.203125 -3.148438 3.203125 -2.664062 3.203125 -2.1875 C 3.203125 -1.707031 3.210938 -1.222656 3.234375 -0.734375 L 4.265625 -0.625 L 4.265625 0 L 0.390625 0 L 0.390625 -0.625 L 1.40625 -0.734375 C 1.414062 -1.242188 1.421875 -1.753906 1.421875 -2.265625 C 1.421875 -2.785156 1.421875 -3.3125 1.421875 -3.84375 L 1.421875 -4.28125 C 1.421875 -4.800781 1.421875 -5.316406 1.421875 -5.828125 C 1.421875 -6.347656 1.414062 -6.867188 1.40625 -7.390625 L 0.390625 -7.5 L 0.390625 -8.109375 L 4.265625 -8.109375 C 5.191406 -8.109375 5.914062 -7.925781 6.4375 -7.5625 C 6.957031 -7.207031 7.21875 -6.710938 7.21875 -6.078125 C 7.21875 -5.878906 7.1875 -5.671875 7.125 -5.453125 C 7.0625 -5.242188 6.957031 -5.039062 6.8125 -4.84375 C 6.664062 -4.65625 6.472656 -4.484375 6.234375 -4.328125 C 6.003906 -4.171875 5.710938 -4.050781 5.359375 -3.96875 C 5.753906 -3.851562 6.082031 -3.660156 6.34375 -3.390625 C 6.601562 -3.117188 6.773438 -2.757812 6.859375 -2.3125 L 7.203125 -0.734375 Z M 8.234375 -0.625 "/></g></g></g><g fill="#000000" fill-opacity="1"><g transform="translate(312.688634, 213.441519)"><g><path d="M 7.265625 -2.28125 L 7.21875 -0.390625 C 6.875 -0.203125 6.488281 -0.0625 6.0625 0.03125 C 5.644531 0.132812 5.203125 0.1875 4.734375 0.1875 C 4.097656 0.1875 3.515625 0.0976562 2.984375 -0.078125 C 2.453125 -0.253906 1.988281 -0.519531 1.59375 -0.875 C 1.207031 -1.226562 0.90625 -1.671875 0.6875 -2.203125 C 0.476562 -2.734375 0.375 -3.347656 0.375 -4.046875 C 0.375 -4.753906 0.484375 -5.375 0.703125 -5.90625 C 0.929688 -6.4375 1.242188 -6.878906 1.640625 -7.234375 C 2.046875 -7.585938 2.519531 -7.851562 3.0625 -8.03125 C 3.613281 -8.207031 4.210938 -8.296875 4.859375 -8.296875 C 5.253906 -8.296875 5.628906 -8.253906 5.984375 -8.171875 C 6.347656 -8.085938 6.71875 -7.9375 7.09375 -7.71875 L 7.15625 -5.84375 L 6.171875 -5.84375 L 5.921875 -7.390625 C 5.578125 -7.546875 5.226562 -7.625 4.875 -7.625 C 4.507812 -7.625 4.164062 -7.546875 3.84375 -7.390625 C 3.53125 -7.234375 3.253906 -7.003906 3.015625 -6.703125 C 2.773438 -6.398438 2.585938 -6.023438 2.453125 -5.578125 C 2.328125 -5.140625 2.265625 -4.628906 2.265625 -4.046875 C 2.265625 -3.472656 2.328125 -2.960938 2.453125 -2.515625 C 2.585938 -2.078125 2.773438 -1.707031 3.015625 -1.40625 C 3.253906 -1.101562 3.53125 -0.875 3.84375 -0.71875 C 4.164062 -0.570312 4.507812 -0.5 4.875 -0.5 C 5.257812 -0.5 5.648438 -0.570312 6.046875 -0.71875 L 6.28125 -2.28125 Z M 7.265625 -2.28125 "/></g></g></g><g fill="#000000" fill-opacity="1"><g transform="translate(325.528355, 213.441519)"><g><path d="M 7.09375 -2.15625 L 7.015625 0 L 0.390625 0 L 0.390625 -0.625 L 1.40625 -0.734375 C 1.414062 -1.242188 1.421875 -1.753906 1.421875 -2.265625 C 1.421875 -2.785156 1.421875 -3.3125 1.421875 -3.84375 L 1.421875 -4.28125 C 1.421875 -4.800781 1.421875 -5.316406 1.421875 -5.828125 C 1.421875 -6.347656 1.414062 -6.867188 1.40625 -7.390625 L 0.390625 -7.5 L 0.390625 -8.109375 L 6.765625 -8.109375 L 6.859375 -5.953125 L 5.921875 -5.953125 L 5.65625 -7.4375 L 3.265625 -7.4375 C 3.242188 -6.96875 3.234375 -6.492188 3.234375 -6.015625 C 3.234375 -5.535156 3.234375 -5.046875 3.234375 -4.546875 L 4.8125 -4.546875 L 4.984375 -5.65625 L 5.65625 -5.65625 L 5.65625 -2.78125 L 4.984375 -2.78125 L 4.828125 -3.859375 L 3.234375 -3.859375 C 3.234375 -3.296875 3.234375 -2.753906 3.234375 -2.234375 C 3.234375 -1.710938 3.242188 -1.191406 3.265625 -0.671875 L 5.90625 -0.671875 L 6.171875 -2.15625 Z M 7.09375 -2.15625 "/></g></g></g></svg>