<svg width="406" height="102" viewBox="0 0 406 102" fill="none" xmlns="http://www.w3.org/2000/svg">
<path d="M14 22.1771C23.4792 12.6562 35.5625 7 48.474 7C61.5208 7 73.4688 12.6562 82.9479 22.1771" stroke="black" stroke-width="2.75315" stroke-miterlimit="10"/>
<path d="M34 35.7604C38.3906 31.349 43.3385 29 48.2813 29C53.224 29 58.1667 31.349 62.5625 35.7604" stroke="black" stroke-width="2.75315" stroke-miterlimit="10"/>
<path d="M34 35.7604C38.3906 31.349 43.3385 29 48.2813 29C53.224 29 58.1667 31.349 62.5625 35.7604" stroke="black" stroke-width="2.75315" stroke-miterlimit="10"/>
<path d="M24 28.901C31.1406 21.8646 39.5156 18 48.4427 18C57.2344 18 65.75 21.8646 72.8906 28.901" stroke="black" stroke-width="2.75315" stroke-miterlimit="10"/>
<mask id="mask0_201_417" style="mask-type:luminance" maskUnits="userSpaceOnUse" x="2" y="0" width="93" height="92">
<path d="M2.19275 0H94.1928V91.6042H2.19275V0Z" fill="white"/>
</mask>
<g mask="url(#mask0_201_417)">
<path d="M54.25 46.0365C54.25 46.4427 54.2083 46.849 54.1302 47.2448C54.0521 47.6458 53.9323 48.0365 53.7813 48.4115C53.625 48.7865 53.4323 49.1458 53.2083 49.4844C52.9844 49.8229 52.724 50.1354 52.4375 50.4271C52.151 50.7135 51.8385 50.974 51.5052 51.1979C51.1667 51.4219 50.8073 51.6146 50.4323 51.7708C50.0573 51.9271 49.6719 52.0469 49.276 52.125C48.875 52.2031 48.474 52.2448 48.0677 52.2448C47.6615 52.2448 47.2604 52.2031 46.8646 52.125C46.4635 52.0469 46.0781 51.9271 45.7031 51.7708C45.3281 51.6146 44.974 51.4219 44.6354 51.1979C44.2969 50.974 43.9844 50.7135 43.6979 50.4271C43.4115 50.1354 43.1562 49.8229 42.9323 49.4844C42.7031 49.1458 42.5156 48.7865 42.3594 48.4115C42.2031 48.0365 42.0885 47.6458 42.0052 47.2448C41.9271 46.849 41.8906 46.4427 41.8906 46.0365C41.8906 45.6302 41.9271 45.224 42.0052 44.8229C42.0885 44.4219 42.2031 44.0365 42.3594 43.6615C42.5156 43.2812 42.7031 42.9271 42.9323 42.5833C43.1562 42.2448 43.4115 41.9323 43.6979 41.6458C43.9844 41.3594 44.2969 41.099 44.6354 40.875C44.974 40.6458 45.3281 40.4531 45.7031 40.2969C46.0781 40.1406 46.4635 40.026 46.8646 39.9479C47.2604 39.8646 47.6615 39.8281 48.0677 39.8281C48.474 39.8281 48.875 39.8646 49.276 39.9479C49.6719 40.026 50.0573 40.1406 50.4323 40.2969C50.8073 40.4531 51.1667 40.6458 51.5052 40.875C51.8385 41.099 52.151 41.3594 52.4375 41.6458C52.724 41.9323 52.9844 42.2448 53.2083 42.5833C53.4323 42.9271 53.625 43.2812 53.7813 43.6615C53.9323 44.0365 54.0521 44.4219 54.1302 44.8229C54.2083 45.224 54.25 45.6302 54.25 46.0365Z" stroke="black" stroke-width="2.75315" stroke-miterlimit="10"/>
</g>
<mask id="mask1_201_417" style="mask-type:luminance" maskUnits="userSpaceOnUse" x="0" y="11" width="96" height="91">
<path d="M0 11.6042H96V102H0V11.6042Z" fill="white"/>
</mask>
<g mask="url(#mask1_201_417)">
<path d="M50.8177 51.5521L73.6145 100.536H22.3854L45.1875 51.5521" stroke="black" stroke-width="2.75315" stroke-miterlimit="10"/>
</g>
<mask id="mask2_201_417" style="mask-type:luminance" maskUnits="userSpaceOnUse" x="0" y="98" width="96" height="4">
<path d="M0 98.2709H96V102H0V98.2709Z" fill="white"/>
</mask>
<g mask="url(#mask2_201_417)">
<path d="M0 100.536H96" stroke="black" stroke-width="2.75315" stroke-miterlimit="10"/>
</g>
<path d="M133.294 53.127L131.856 35.2728H131.689L125.502 52.9395H121.419L115.252 35.2728H115.064L113.648 53.127H106.773L109.481 23.002H116.773L123.46 40.377L130.148 23.002H137.46L140.148 53.127H133.294Z" fill="black"/>
<path d="M150.662 38.0436C150.662 33.6842 152.147 29.9967 155.121 26.9811C158.089 23.9551 161.673 22.4395 165.871 22.4395C170.079 22.4395 173.652 23.9499 176.6 26.9603C179.543 29.9603 181.017 33.6582 181.017 38.0436C181.017 42.4499 179.563 46.1582 176.662 49.1686C173.772 52.1686 170.173 53.6686 165.871 53.6686C161.454 53.6686 157.813 52.1842 154.954 49.2103C152.089 46.2259 150.662 42.502 150.662 38.0436ZM158.079 38.0436C158.079 39.627 158.319 41.0749 158.808 42.377C159.293 43.6842 160.147 44.7884 161.371 45.6895C162.589 46.5801 164.089 47.0228 165.871 47.0228C168.423 47.0228 170.35 46.1478 171.642 44.3978C172.944 42.6478 173.6 40.5332 173.6 38.0436C173.6 35.5853 172.933 33.4759 171.6 31.7103C170.277 29.9499 168.371 29.0645 165.871 29.0645C163.381 29.0645 161.459 29.9499 160.1 31.7103C158.751 33.4759 158.079 35.5853 158.079 38.0436Z" fill="black"/>
<path d="M218.053 53.127L216.616 35.2728H216.449L210.262 52.9395H206.178L200.012 35.2728H199.824L198.407 53.127H191.532L194.241 23.002H201.532L208.22 40.377L214.907 23.002H222.22L224.907 53.127H218.053Z" fill="black"/>
<path d="M236.776 23.002H246.13C248.948 23.002 251.198 23.6061 252.88 24.8145C254.557 26.0124 255.401 27.9603 255.401 30.6686C255.401 33.6842 254.151 35.8353 251.651 37.127C255.927 37.8926 258.068 40.429 258.068 44.7311C258.068 47.2624 257.193 49.2936 255.443 50.8353C253.693 52.3665 251.281 53.127 248.214 53.127H236.776V23.002ZM243.651 34.7936H244.193C245.719 34.7936 246.86 34.5332 247.61 34.002C248.37 33.4603 248.755 32.5801 248.755 31.3561C248.755 29.3145 247.235 28.2936 244.193 28.2936H243.651V34.7936ZM243.651 47.8353H245.797C249.156 47.8353 250.839 46.7207 250.839 44.4811C250.839 43.1374 250.412 42.1686 249.568 41.5853C248.735 41.002 247.474 40.7103 245.797 40.7103H243.651V47.8353Z" fill="black"/>
<path d="M285.504 23.002L297.65 53.127H290.275L288.046 47.1061H276.587L274.358 53.127H266.983L279.15 23.002H285.504ZM285.712 41.0853L282.358 32.3145H282.275L278.921 41.0853H285.712Z" fill="black"/>
<path d="M319.02 22.4395C320.655 22.4395 322.254 22.6842 323.811 23.1686C325.363 23.6426 326.52 24.1061 327.27 24.5645L328.374 25.2936L325.603 30.7728C325.379 30.6374 325.072 30.4499 324.686 30.2103C324.296 29.9759 323.561 29.6634 322.478 29.2728C321.405 28.8874 320.415 28.6895 319.499 28.6895C318.343 28.6895 317.457 28.9342 316.832 29.4186C316.218 29.9082 315.915 30.5645 315.915 31.3978C315.915 31.8145 316.061 32.2051 316.353 32.5645C316.645 32.9134 317.145 33.2884 317.853 33.6895C318.561 34.0801 319.176 34.3978 319.707 34.6478C320.249 34.8978 321.082 35.2676 322.207 35.752C324.15 36.5749 325.811 37.6999 327.186 39.127C328.561 40.5436 329.249 42.1582 329.249 43.9603C329.249 45.6842 328.936 47.1895 328.311 48.4811C327.697 49.7728 326.853 50.7884 325.77 51.5228C324.686 52.2467 323.483 52.7832 322.165 53.127C320.843 53.4863 319.421 53.6686 317.895 53.6686C316.572 53.6686 315.28 53.5332 314.02 53.2728C312.754 53.0124 311.691 52.679 310.832 52.2728C309.983 51.8717 309.218 51.4759 308.54 51.0853C307.858 50.6999 307.358 50.3717 307.04 50.1061L306.561 49.6895L309.999 43.9186C310.29 44.1686 310.691 44.4811 311.207 44.8561C311.718 45.2311 312.624 45.7415 313.915 46.377C315.218 47.002 316.374 47.3145 317.374 47.3145C320.275 47.3145 321.728 46.3301 321.728 44.3561C321.728 43.9395 321.624 43.5592 321.415 43.2103C321.207 42.8665 320.837 42.5176 320.311 42.1686C319.796 41.8092 319.337 41.5228 318.936 41.3145C318.53 41.1061 317.874 40.7936 316.957 40.377C316.04 39.9499 315.363 39.6217 314.936 39.3978C313.103 38.4967 311.686 37.3717 310.686 36.0228C309.697 34.6634 309.207 33.2051 309.207 31.6478C309.207 28.9551 310.197 26.7467 312.186 25.0228C314.186 23.304 316.462 22.4395 319.02 22.4395Z" fill="black"/>
<path d="M356.862 23.002L369.008 53.127H361.633L359.404 47.1061H347.945L345.716 53.127H338.341L350.508 23.002H356.862ZM357.07 41.0853L353.716 32.3145H353.633L350.279 41.0853H357.07Z" fill="black"/>
<path d="M89.5728 82.4845L89.5103 85.0053C89.0519 85.2553 88.5363 85.4428 87.9686 85.5678C87.4113 85.7032 86.8228 85.7761 86.1978 85.7761C85.3488 85.7761 84.5728 85.6563 83.8644 85.422C83.1561 85.1876 82.5363 84.8334 82.0103 84.3595C81.4946 83.8907 81.0936 83.297 80.8019 82.5886C80.5207 81.8803 80.3853 81.0626 80.3853 80.1303C80.3853 79.1876 80.5311 78.3595 80.8228 77.6511C81.1248 76.9428 81.5415 76.3542 82.0728 75.8803C82.6144 75.4115 83.2446 75.0574 83.9686 74.8178C84.703 74.5834 85.4998 74.4636 86.3644 74.4636C86.8905 74.4636 87.3905 74.5209 87.8644 74.6303C88.3488 74.7449 88.8436 74.9428 89.3436 75.2345L89.4269 77.7345H88.1144L87.7811 75.672C87.3228 75.4636 86.854 75.3595 86.3853 75.3595C85.8957 75.3595 85.4373 75.4636 85.0103 75.672C84.5936 75.8803 84.2238 76.1876 83.9061 76.5886C83.5832 76.9949 83.3332 77.4949 83.1561 78.0886C82.9894 78.672 82.9061 79.3542 82.9061 80.1303C82.9061 80.8959 82.9894 81.5782 83.1561 82.172C83.3332 82.7553 83.5832 83.2501 83.9061 83.6511C84.2238 84.0574 84.5936 84.3595 85.0103 84.5678C85.4373 84.7657 85.8957 84.8595 86.3853 84.8595C86.8957 84.8595 87.4165 84.7657 87.9478 84.5678L88.2603 82.4845H89.5728Z" fill="black"/>
<path d="M108.276 75.672C108.244 76.3699 108.234 77.0626 108.234 77.7553C108.234 78.4376 108.234 79.1251 108.234 79.8178V80.4011C108.234 81.099 108.234 81.7917 108.234 82.4845C108.234 83.1667 108.244 83.8542 108.276 84.547L109.609 84.6928V85.5261H104.463V84.6928L105.796 84.547C105.807 83.8959 105.817 83.2292 105.817 82.547C105.817 81.8542 105.817 81.1303 105.817 80.3803H101.317C101.317 81.1199 101.317 81.8334 101.317 82.5261C101.317 83.2084 101.328 83.8803 101.359 84.547L102.692 84.6928V85.5261H97.5256V84.6928L98.8798 84.547C98.8902 83.8699 98.9006 83.1876 98.9006 82.5053C98.9006 81.8126 98.9006 81.1095 98.9006 80.4011V79.8178C98.9006 79.1251 98.9006 78.4376 98.9006 77.7553C98.9006 77.0626 98.8902 76.3699 98.8798 75.672L97.5256 75.5261V74.7136H102.692V75.5261L101.359 75.672C101.328 76.3126 101.317 76.9428 101.317 77.5678C101.317 78.1928 101.317 78.8334 101.317 79.4845H105.817C105.817 78.849 105.817 78.2136 105.817 77.5886C105.817 76.9532 105.807 76.3126 105.796 75.672L104.463 75.5261V74.7136H109.609V75.5261L108.276 75.672Z" fill="black"/>
<path d="M123.336 81.2553L122.023 77.5678L120.648 81.2553H123.336ZM128.044 84.7136V85.5261H123.169V84.7136L124.523 84.547L123.669 82.1511H120.315L119.44 84.5053L120.773 84.6928V85.5261H117.065V84.6928L118.544 84.4845L122.211 74.7136H123.19L126.94 84.5886L128.044 84.7136Z" fill="black"/>
<path d="M148.194 75.672C148.162 76.3699 148.152 77.0626 148.152 77.7553C148.152 78.4376 148.152 79.1251 148.152 79.8178V80.4011C148.152 81.099 148.152 81.7917 148.152 82.4845C148.152 83.1667 148.162 83.8542 148.194 84.547L149.527 84.6928V85.5261H144.381V84.6928L145.714 84.547C145.74 83.8699 145.756 83.1876 145.756 82.5053C145.756 81.8126 145.756 81.1095 145.756 80.4011V77.5053L142.048 85.5261H141.381L137.652 77.5053V84.4845L139.214 84.6928V85.5261H135.194V84.6928L136.735 84.4845V75.672L135.381 75.5261V74.7136H138.694L142.423 82.4636L146.069 74.7136H149.527V75.5261L148.194 75.672Z" fill="black"/>
<path d="M161.736 84.6095C162.319 84.6095 162.798 84.5626 163.173 84.4636C163.548 84.3699 163.84 84.224 164.048 84.0261C164.257 83.8334 164.402 83.6042 164.486 83.3386C164.569 83.0626 164.611 82.7553 164.611 82.422C164.611 81.6615 164.402 81.1095 163.986 80.7761C163.579 80.4428 162.882 80.2761 161.882 80.2761H161.215C161.215 81.0417 161.215 81.7865 161.215 82.5053C161.215 83.2136 161.225 83.9167 161.257 84.6095H161.736ZM161.257 75.6095C161.225 76.2345 161.215 76.8699 161.215 77.5053C161.215 78.1303 161.215 78.7657 161.215 79.4011H161.819C162.611 79.4011 163.184 79.2449 163.548 78.922C163.923 78.5886 164.111 78.1095 164.111 77.4845C164.111 76.8595 163.944 76.3959 163.611 76.0886C163.288 75.7709 162.767 75.6095 162.048 75.6095H161.257ZM162.611 74.7136C163.913 74.7136 164.866 74.9636 165.465 75.4636C166.074 75.9532 166.382 76.6042 166.382 77.422C166.382 77.6876 166.345 77.9428 166.277 78.1928C166.22 78.4324 166.111 78.6511 165.944 78.8595C165.788 79.0678 165.579 79.2553 165.319 79.422C165.069 79.5782 164.762 79.7032 164.402 79.797C164.887 79.8803 165.288 80.0157 165.611 80.1928C165.944 80.3595 166.215 80.5626 166.423 80.797C166.632 81.0209 166.777 81.2761 166.861 81.5678C166.954 81.849 167.007 82.1459 167.007 82.4636C167.007 82.8282 166.934 83.1928 166.798 83.5678C166.658 83.9324 166.392 84.2553 166.007 84.547C165.632 84.8386 165.1 85.0782 164.423 85.2553C163.757 85.4376 162.887 85.5261 161.819 85.5261H157.423V84.6928L158.777 84.547C158.788 83.8699 158.798 83.1876 158.798 82.5053C158.798 81.8126 158.798 81.1095 158.798 80.4011V79.8178C158.798 79.1251 158.798 78.4376 158.798 77.7553C158.798 77.0626 158.788 76.3699 158.777 75.672L157.423 75.5261V74.7136H162.611Z" fill="black"/>
<path d="M183.712 82.6511L183.607 85.5261H174.774V84.6928L176.128 84.547C176.139 83.8699 176.149 83.1876 176.149 82.5053C176.149 81.8126 176.149 81.1095 176.149 80.4011V79.8178C176.149 79.1251 176.149 78.4376 176.149 77.7553C176.149 77.0626 176.139 76.3699 176.128 75.672L174.774 75.5261V74.7136H183.274L183.399 77.5886H182.149L181.795 75.6095H178.607C178.576 76.2345 178.566 76.8699 178.566 77.5053C178.566 78.1459 178.566 78.797 178.566 79.4636H180.67L180.899 77.9845H181.795V81.8178H180.899L180.691 80.3803H178.566C178.566 81.1303 178.566 81.8542 178.566 82.547C178.566 83.2449 178.576 83.9376 178.607 84.6303H182.128L182.482 82.6511H183.712Z" fill="black"/>
<path d="M195.976 79.7553C196.393 79.7553 196.747 79.7032 197.039 79.5886C197.331 79.4792 197.565 79.3282 197.747 79.1303C197.94 78.9376 198.081 78.7084 198.164 78.4428C198.247 78.1824 198.289 77.8959 198.289 77.5886C198.289 76.9376 198.101 76.4428 197.726 76.1095C197.362 75.7761 196.779 75.6095 195.976 75.6095H195.289C195.258 76.2917 195.247 76.9792 195.247 77.672C195.247 78.3542 195.247 79.047 195.247 79.7553H195.976ZM201.956 84.6928V85.5261C201.622 85.5938 201.32 85.6355 201.06 85.6511C200.81 85.6772 200.57 85.6928 200.351 85.6928C200.029 85.6928 199.737 85.672 199.476 85.6303C199.211 85.5886 198.982 85.5209 198.789 85.422C198.591 85.3282 198.424 85.1876 198.289 85.0053C198.164 84.8282 198.07 84.5886 198.018 84.297L197.581 82.1095C197.466 81.5678 197.273 81.1928 196.997 80.9845C196.732 80.7761 196.32 80.672 195.768 80.672H195.247C195.247 81.3282 195.247 81.974 195.247 82.6095C195.247 83.2501 195.258 83.8959 195.289 84.547L196.664 84.6928V85.5261H191.497V84.6928L192.851 84.547C192.862 83.8699 192.872 83.1876 192.872 82.5053C192.872 81.8126 192.872 81.1095 192.872 80.4011V79.8178C192.872 79.1251 192.872 78.4376 192.872 77.7553C192.872 77.0626 192.862 76.3699 192.851 75.672L191.497 75.5261V74.7136H196.664C197.898 74.7136 198.862 74.9584 199.56 75.4428C200.253 75.9167 200.601 76.5782 200.601 77.422C200.601 77.6876 200.56 77.9636 200.476 78.2553C200.393 78.5365 200.253 78.8074 200.06 79.0678C199.862 79.3178 199.607 79.547 199.289 79.7553C198.982 79.9636 198.591 80.1251 198.122 80.2345C198.648 80.3907 199.086 80.6459 199.435 81.0053C199.779 81.3699 200.008 81.849 200.122 82.4428L200.581 84.547L201.956 84.6928Z" fill="black"/>
<path d="M222.448 80.1303C222.448 80.7292 222.495 81.3126 222.594 81.8803C222.688 82.4376 222.849 82.9376 223.073 83.3803C223.292 83.8282 223.578 84.1876 223.927 84.4636C224.287 84.7292 224.724 84.8595 225.24 84.8595C225.74 84.8595 226.162 84.7292 226.511 84.4636C226.87 84.1876 227.162 83.8282 227.386 83.3803C227.605 82.9376 227.766 82.4376 227.865 81.8803C227.974 81.3126 228.032 80.7292 228.032 80.1303C228.032 79.5365 227.974 78.9532 227.865 78.3803C227.766 77.797 227.605 77.2865 227.386 76.8386C227.162 76.3959 226.87 76.0417 226.511 75.7761C226.162 75.5001 225.74 75.3595 225.24 75.3595C224.724 75.3595 224.287 75.5001 223.927 75.7761C223.578 76.0417 223.292 76.3959 223.073 76.8386C222.849 77.2865 222.688 77.797 222.594 78.3803C222.495 78.9532 222.448 79.5365 222.448 80.1303ZM225.24 74.4636C225.891 74.4636 226.532 74.5834 227.157 74.8178C227.792 75.0574 228.365 75.4115 228.865 75.8803C229.375 76.3386 229.787 76.922 230.094 77.6303C230.396 78.3386 230.552 79.172 230.552 80.1303C230.552 81.0782 230.396 81.9011 230.094 82.6095C229.787 83.3074 229.375 83.8907 228.865 84.3595C228.365 84.8334 227.792 85.1876 227.157 85.422C226.532 85.6563 225.891 85.7761 225.24 85.7761C224.584 85.7761 223.938 85.6563 223.302 85.422C222.662 85.1876 222.094 84.8334 221.594 84.3595C221.094 83.8907 220.683 83.3074 220.365 82.6095C220.058 81.9011 219.907 81.0782 219.907 80.1303C219.907 79.172 220.058 78.3386 220.365 77.6303C220.683 76.922 221.094 76.3386 221.594 75.8803C222.105 75.4115 222.677 75.0574 223.302 74.8178C223.938 74.5834 224.584 74.4636 225.24 74.4636Z" fill="black"/>
<path d="M242.28 75.6095C242.249 76.2345 242.238 76.8699 242.238 77.5053C242.238 78.1459 242.238 78.797 242.238 79.4636H244.426L244.655 77.9845H245.551V81.9845H244.655L244.426 80.3803H242.238C242.238 81.1042 242.238 81.8126 242.238 82.5053C242.238 83.1876 242.249 83.8595 242.28 84.5261L243.78 84.6928V85.5261H238.447V84.6928L239.801 84.547C239.811 83.8699 239.822 83.1876 239.822 82.5053C239.822 81.8126 239.822 81.1095 239.822 80.4011V79.8178C239.822 79.1251 239.822 78.4376 239.822 77.7553C239.822 77.0626 239.811 76.3699 239.801 75.672L238.447 75.5261V74.7136H246.947L247.072 77.5886H245.822L245.467 75.6095H242.28Z" fill="black"/>
<path d="M274.569 82.4845L274.507 85.0053C274.048 85.2553 273.533 85.4428 272.965 85.5678C272.408 85.7032 271.819 85.7761 271.194 85.7761C270.345 85.7761 269.569 85.6563 268.861 85.422C268.152 85.1876 267.533 84.8334 267.007 84.3595C266.491 83.8907 266.09 83.297 265.798 82.5886C265.517 81.8803 265.382 81.0626 265.382 80.1303C265.382 79.1876 265.527 78.3595 265.819 77.6511C266.121 76.9428 266.538 76.3542 267.069 75.8803C267.611 75.4115 268.241 75.0574 268.965 74.8178C269.699 74.5834 270.496 74.4636 271.361 74.4636C271.887 74.4636 272.387 74.5209 272.861 74.6303C273.345 74.7449 273.84 74.9428 274.34 75.2345L274.423 77.7345H273.111L272.777 75.672C272.319 75.4636 271.85 75.3595 271.382 75.3595C270.892 75.3595 270.434 75.4636 270.007 75.672C269.59 75.8803 269.22 76.1876 268.902 76.5886C268.58 76.9949 268.33 77.4949 268.152 78.0886C267.986 78.672 267.902 79.3542 267.902 80.1303C267.902 80.8959 267.986 81.5782 268.152 82.172C268.33 82.7553 268.58 83.2501 268.902 83.6511C269.22 84.0574 269.59 84.3595 270.007 84.5678C270.434 84.7657 270.892 84.8595 271.382 84.8595C271.892 84.8595 272.413 84.7657 272.944 84.5678L273.257 82.4845H274.569Z" fill="black"/>
<path d="M285.064 80.1303C285.064 80.7292 285.111 81.3126 285.21 81.8803C285.303 82.4376 285.465 82.9376 285.689 83.3803C285.908 83.8282 286.194 84.1876 286.543 84.4636C286.902 84.7292 287.34 84.8595 287.855 84.8595C288.355 84.8595 288.777 84.7292 289.126 84.4636C289.486 84.1876 289.777 83.8282 290.001 83.3803C290.22 82.9376 290.381 82.4376 290.48 81.8803C290.59 81.3126 290.647 80.7292 290.647 80.1303C290.647 79.5365 290.59 78.9532 290.48 78.3803C290.381 77.797 290.22 77.2865 290.001 76.8386C289.777 76.3959 289.486 76.0417 289.126 75.7761C288.777 75.5001 288.355 75.3595 287.855 75.3595C287.34 75.3595 286.902 75.5001 286.543 75.7761C286.194 76.0417 285.908 76.3959 285.689 76.8386C285.465 77.2865 285.303 77.797 285.21 78.3803C285.111 78.9532 285.064 79.5365 285.064 80.1303ZM287.855 74.4636C288.506 74.4636 289.147 74.5834 289.772 74.8178C290.408 75.0574 290.98 75.4115 291.48 75.8803C291.991 76.3386 292.402 76.922 292.71 77.6303C293.012 78.3386 293.168 79.172 293.168 80.1303C293.168 81.0782 293.012 81.9011 292.71 82.6095C292.402 83.3074 291.991 83.8907 291.48 84.3595C290.98 84.8334 290.408 85.1876 289.772 85.422C289.147 85.6563 288.506 85.7761 287.855 85.7761C287.199 85.7761 286.553 85.6563 285.918 85.422C285.277 85.1876 284.71 84.8334 284.21 84.3595C283.71 83.8907 283.298 83.3074 282.98 82.6095C282.673 81.9011 282.522 81.0782 282.522 80.1303C282.522 79.172 282.673 78.3386 282.98 77.6303C283.298 76.922 283.71 76.3386 284.21 75.8803C284.72 75.4115 285.293 75.0574 285.918 74.8178C286.553 74.5834 287.199 74.4636 287.855 74.4636Z" fill="black"/>
<path d="M313.791 75.672C313.76 76.3699 313.75 77.0626 313.75 77.7553C313.75 78.4376 313.75 79.1251 313.75 79.8178V80.4011C313.75 81.099 313.75 81.7917 313.75 82.4845C313.75 83.1667 313.76 83.8542 313.791 84.547L315.125 84.6928V85.5261H309.979V84.6928L311.312 84.547C311.338 83.8699 311.354 83.1876 311.354 82.5053C311.354 81.8126 311.354 81.1095 311.354 80.4011V77.5053L307.645 85.5261H306.979L303.25 77.5053V84.4845L304.812 84.6928V85.5261H300.791V84.6928L302.333 84.4845V75.672L300.979 75.5261V74.7136H304.291L308.02 82.4636L311.666 74.7136H315.125V75.5261L313.791 75.672Z" fill="black"/>
<path d="M335.75 75.672C335.719 76.3699 335.708 77.0626 335.708 77.7553C335.708 78.4376 335.708 79.1251 335.708 79.8178V80.4011C335.708 81.099 335.708 81.7917 335.708 82.4845C335.708 83.1667 335.719 83.8542 335.75 84.547L337.083 84.6928V85.5261H331.938V84.6928L333.271 84.547C333.297 83.8699 333.313 83.1876 333.313 82.5053C333.313 81.8126 333.313 81.1095 333.313 80.4011V77.5053L329.604 85.5261H328.938L325.208 77.5053V84.4845L326.771 84.6928V85.5261H322.75V84.6928L324.292 84.4845V75.672L322.938 75.5261V74.7136H326.25L329.979 82.4636L333.625 74.7136H337.083V75.5261L335.75 75.672Z" fill="black"/>
<path d="M353.917 82.6511L353.813 85.5261H344.979V84.6928L346.334 84.547C346.344 83.8699 346.354 83.1876 346.354 82.5053C346.354 81.8126 346.354 81.1095 346.354 80.4011V79.8178C346.354 79.1251 346.354 78.4376 346.354 77.7553C346.354 77.0626 346.344 76.3699 346.334 75.672L344.979 75.5261V74.7136H353.479L353.604 77.5886H352.354L352 75.6095H348.813C348.782 76.2345 348.771 76.8699 348.771 77.5053C348.771 78.1459 348.771 78.797 348.771 79.4636H350.875L351.104 77.9845H352V81.8178H351.104L350.896 80.3803H348.771C348.771 81.1303 348.771 81.8542 348.771 82.547C348.771 83.2449 348.782 83.9376 348.813 84.6303H352.334L352.688 82.6511H353.917Z" fill="black"/>
<path d="M366.182 79.7553C366.598 79.7553 366.953 79.7032 367.244 79.5886C367.536 79.4792 367.77 79.3282 367.953 79.1303C368.145 78.9376 368.286 78.7084 368.369 78.4428C368.453 78.1824 368.494 77.8959 368.494 77.5886C368.494 76.9376 368.307 76.4428 367.932 76.1095C367.567 75.7761 366.984 75.6095 366.182 75.6095H365.494C365.463 76.2917 365.453 76.9792 365.453 77.672C365.453 78.3542 365.453 79.047 365.453 79.7553H366.182ZM372.161 84.6928V85.5261C371.828 85.5938 371.526 85.6355 371.265 85.6511C371.015 85.6772 370.776 85.6928 370.557 85.6928C370.234 85.6928 369.942 85.672 369.682 85.6303C369.416 85.5886 369.187 85.5209 368.994 85.422C368.796 85.3282 368.63 85.1876 368.494 85.0053C368.369 84.8282 368.276 84.5886 368.223 84.297L367.786 82.1095C367.671 81.5678 367.479 81.1928 367.203 80.9845C366.937 80.7761 366.526 80.672 365.973 80.672H365.453C365.453 81.3282 365.453 81.974 365.453 82.6095C365.453 83.2501 365.463 83.8959 365.494 84.547L366.869 84.6928V85.5261H361.703V84.6928L363.057 84.547C363.067 83.8699 363.078 83.1876 363.078 82.5053C363.078 81.8126 363.078 81.1095 363.078 80.4011V79.8178C363.078 79.1251 363.078 78.4376 363.078 77.7553C363.078 77.0626 363.067 76.3699 363.057 75.672L361.703 75.5261V74.7136H366.869C368.104 74.7136 369.067 74.9584 369.765 75.4428C370.458 75.9167 370.807 76.5782 370.807 77.422C370.807 77.6876 370.765 77.9636 370.682 78.2553C370.598 78.5365 370.458 78.8074 370.265 79.0678C370.067 79.3178 369.812 79.547 369.494 79.7553C369.187 79.9636 368.796 80.1251 368.328 80.2345C368.854 80.3907 369.291 80.6459 369.64 81.0053C369.984 81.3699 370.213 81.849 370.328 82.4428L370.786 84.547L372.161 84.6928Z" fill="black"/>
<path d="M388.798 82.4845L388.736 85.0053C388.278 85.2553 387.762 85.4428 387.194 85.5678C386.637 85.7032 386.048 85.7761 385.423 85.7761C384.574 85.7761 383.798 85.6563 383.09 85.422C382.382 85.1876 381.762 84.8334 381.236 84.3595C380.72 83.8907 380.319 83.297 380.028 82.5886C379.746 81.8803 379.611 81.0626 379.611 80.1303C379.611 79.1876 379.757 78.3595 380.048 77.6511C380.35 76.9428 380.767 76.3542 381.298 75.8803C381.84 75.4115 382.47 75.0574 383.194 74.8178C383.929 74.5834 384.725 74.4636 385.59 74.4636C386.116 74.4636 386.616 74.5209 387.09 74.6303C387.574 74.7449 388.069 74.9428 388.569 75.2345L388.653 77.7345H387.34L387.007 75.672C386.548 75.4636 386.08 75.3595 385.611 75.3595C385.121 75.3595 384.663 75.4636 384.236 75.672C383.819 75.8803 383.449 76.1876 383.132 76.5886C382.809 76.9949 382.559 77.4949 382.382 78.0886C382.215 78.672 382.132 79.3542 382.132 80.1303C382.132 80.8959 382.215 81.5782 382.382 82.172C382.559 82.7553 382.809 83.2501 383.132 83.6511C383.449 84.0574 383.819 84.3595 384.236 84.5678C384.663 84.7657 385.121 84.8595 385.611 84.8595C386.121 84.8595 386.642 84.7657 387.173 84.5678L387.486 82.4845H388.798Z" fill="black"/>
<path d="M405.689 82.6511L405.585 85.5261H396.751V84.6928L398.106 84.547C398.116 83.8699 398.126 83.1876 398.126 82.5053C398.126 81.8126 398.126 81.1095 398.126 80.4011V79.8178C398.126 79.1251 398.126 78.4376 398.126 77.7553C398.126 77.0626 398.116 76.3699 398.106 75.672L396.751 75.5261V74.7136H405.251L405.376 77.5886H404.126L403.772 75.6095H400.585C400.554 76.2345 400.543 76.8699 400.543 77.5053C400.543 78.1459 400.543 78.797 400.543 79.4636H402.647L402.876 77.9845H403.772V81.8178H402.876L402.668 80.3803H400.543C400.543 81.1303 400.543 81.8542 400.543 82.547C400.543 83.2449 400.554 83.9376 400.585 84.6303H404.106L404.46 82.6511H405.689Z" fill="black"/>
</svg>
