<svg width="32" height="32" viewBox="0 0 32 32" fill="none" xmlns="http://www.w3.org/2000/svg">
<path fill-rule="evenodd" clip-rule="evenodd" d="M16 4C13.7908 4 12 5.79087 12 8V15.3335C12 15.7528 11.7968 16.1415 11.4882 16.4253C10.1635 17.6437 9.33337 19.3916 9.33337 21.3333C9.33337 25.0152 12.3181 28 16 28C19.6819 28 22.6667 25.0152 22.6667 21.3333C22.6667 19.3916 21.8366 17.6437 20.5119 16.4253C20.2032 16.1415 20 15.7528 20 15.3335V8C20 5.79087 18.2092 4 16 4ZM18.6667 21.3333C18.6667 22.8061 17.4728 24 16 24C14.5272 24 13.3334 22.8061 13.3334 21.3333C13.3334 20.3463 13.8696 19.4845 14.6667 19.0235V8C14.6667 7.26363 15.2636 6.66667 16 6.66667C16.7364 6.66667 17.3334 7.26363 17.3334 8V19.0235C18.1304 19.4845 18.6667 20.3463 18.6667 21.3333Z" fill="white"/>
</svg>
