<?xml version="1.0" encoding="iso-8859-1"?>
<!-- Uploaded to: SVG Repo, www.svgrepo.com, Generator: SVG Repo Mixer Tools -->
<svg fill="#FFFFFF" height="24px" width="24px" version="1.1" id="Layer_1" xmlns="http://www.w3.org/2000/svg" xmlns:xlink="http://www.w3.org/1999/xlink" 
	 viewBox="0 0 512 512" xml:space="preserve">
<g>
	<g>
		<path d="M17.554,444.541c-0.46-1.098-1.098-2.107-1.92-3.016c-2.563-2.473-6.585-3.386-9.969-1.92
			c-1.094,0.456-2.103,1.098-3.013,1.92c-0.826,0.909-1.464,1.83-1.924,3.016C0.272,445.642,0,446.827,0,448.015
			c0,2.467,0.911,4.752,2.652,6.493c1.737,1.732,4.022,2.65,6.491,2.65c1.188,0,2.375-0.275,3.473-0.732
			c1.098-0.455,2.103-1.096,3.018-1.917c1.737-1.741,2.652-4.027,2.652-6.493C18.286,446.827,18.009,445.642,17.554,444.541z"/>
	</g>
</g>
<g>
	<g>
		<path d="M72.411,389.684c-0.46-1.185-1.098-2.107-1.92-3.016c-3.478-3.386-9.509-3.386-12.982,0
			c-0.826,0.909-1.464,1.917-1.924,3.016c-0.455,1.101-0.728,2.286-0.728,3.473c0,1.19,0.272,2.375,0.728,3.475
			c0.46,1.096,1.098,2.096,1.924,3.018c1.737,1.732,4.022,2.65,6.491,2.65c2.469,0,4.755-0.917,6.491-2.65
			c1.736-1.741,2.652-4.027,2.652-6.493C73.143,391.97,72.866,390.785,72.411,389.684z"/>
	</g>
</g>
<g>
	<g>
		<path d="M116.206,322.668c-0.915-0.821-1.92-1.464-3.018-1.92c-3.384-1.467-7.406-0.645-9.964,1.92
			c-1.647,1.73-2.652,4.116-2.652,6.489c0,2.466,0.911,4.752,2.652,6.493c1.737,1.732,4.022,2.65,6.491,2.65
			c2.469,0,4.755-0.917,6.491-2.65c1.736-1.741,2.652-4.027,2.652-6.493C118.857,326.785,117.848,324.398,116.206,322.668z"/>
	</g>
</g>
<g>
	<g>
		<path d="M154.696,389.684c-0.46-1.185-1.098-2.107-1.92-3.016c-3.478-3.386-9.509-3.386-12.982,0
			c-0.826,0.909-1.464,1.917-1.924,3.016c-0.455,1.101-0.728,2.286-0.728,3.473c0,1.19,0.272,2.375,0.728,3.475
			c0.46,1.096,1.098,2.096,1.924,3.018c1.737,1.732,4.022,2.65,6.491,2.65c1.188,0,2.375-0.188,3.473-0.732
			c1.098-0.455,2.103-1.096,3.018-1.917c1.736-1.741,2.652-4.027,2.652-6.493C155.429,391.97,155.246,390.785,154.696,389.684z"/>
	</g>
</g>
<g>
	<g>
		<path d="M246.125,389.684c-0.46-1.098-1.098-2.107-1.919-3.016c-3.478-3.386-9.509-3.386-12.982,0
			c-0.826,0.909-1.464,1.83-1.924,3.016c-0.455,1.101-0.728,2.286-0.728,3.473c0,2.466,0.911,4.752,2.652,6.493
			c0.911,0.821,1.92,1.462,3.013,1.917c1.098,0.545,2.286,0.732,3.478,0.732c2.469,0,4.755-0.917,6.491-2.65
			c0.821-0.922,1.46-1.922,1.919-3.018c0.455-1.101,0.732-2.286,0.732-3.475C246.857,391.97,246.58,390.785,246.125,389.684z"/>
	</g>
</g>
<g>
	<g>
		<path d="M198.491,322.668c-0.915-0.821-1.83-1.464-3.018-1.92c-3.384-1.467-7.406-0.645-9.964,1.92
			c-0.826,0.909-1.464,1.83-1.924,3.016c-0.455,1.101-0.728,2.286-0.728,3.473c0,2.467,0.911,4.752,2.652,6.493
			c0.911,0.821,1.92,1.462,3.013,1.917c1.098,0.458,2.286,0.732,3.478,0.732c2.469,0,4.755-0.917,6.491-2.65
			c1.736-1.741,2.652-4.027,2.652-6.493C201.143,326.785,200.134,324.398,198.491,322.668z"/>
	</g>
</g>
<g>
	<g>
		<path d="M108.982,444.541c-0.46-1.185-1.098-2.107-1.92-3.016c-3.384-3.386-9.603-3.386-12.982,0
			c-0.826,0.909-1.464,1.83-1.924,3.016c-0.455,1.101-0.728,2.286-0.728,3.473c0,2.467,0.911,4.752,2.652,6.493
			c1.737,1.732,4.022,2.65,6.491,2.65c1.188,0,2.375-0.275,3.473-0.732c1.098-0.455,2.103-1.096,3.018-1.917
			c1.736-1.741,2.652-4.027,2.652-6.493C109.714,446.827,109.438,445.642,108.982,444.541z"/>
	</g>
</g>
<g>
	<g>
		<path d="M24.777,322.668c-2.563-2.565-6.585-3.386-9.969-1.92c-1.094,0.456-2.103,1.098-3.013,1.92
			c-1.647,1.73-2.652,4.116-2.652,6.489c0,2.466,0.911,4.752,2.652,6.493c1.737,1.732,4.022,2.65,6.491,2.65
			c2.469,0,4.755-0.917,6.491-2.65c1.736-1.741,2.652-4.027,2.652-6.493C27.429,326.785,26.42,324.398,24.777,322.668z"/>
	</g>
</g>
<g>
	<g>
		<path d="M201.143,54.843c-30.25,0-54.857,24.623-54.857,54.873c0,5.049,4.094,9.149,9.143,9.149s9.143-4.089,9.143-9.138
			c0-20.165,16.406-36.57,36.571-36.57c20.165,0,36.571,16.348,36.571,36.513c0,20.165-16.406,36.512-36.571,36.512h-82.286
			c-5.049,0-9.143,4.094-9.143,9.143c0,5.049,4.094,9.143,9.143,9.143h82.286c30.25,0,54.857-24.547,54.857-54.798
			C256,79.42,231.393,54.843,201.143,54.843z"/>
	</g>
</g>
<g>
	<g>
		<path d="M338.286,91.414c-30.25,0-54.857,24.623-54.857,54.873c0,5.049,4.094,9.149,9.143,9.149c5.049,0,9.143-4.089,9.143-9.138
			c0-20.165,16.406-36.57,36.571-36.57c20.165,0,36.571,16.348,36.571,36.513c0,20.165-16.406,36.512-36.571,36.512H91.429
			c-5.049,0-9.143,4.094-9.143,9.143c0,5.049,4.094,9.143,9.143,9.143h246.857c30.25,0,54.857-24.547,54.857-54.798
			C393.143,115.991,368.536,91.414,338.286,91.414z"/>
	</g>
</g>
<g>
	<g>
		<path d="M338.286,255.896H36.571c-5.049,0-9.143,4.089-9.143,9.143c0,5.053,4.094,9.143,9.143,9.143h301.714
			c20.165,0,36.571,16.462,36.571,36.632c0,20.17-16.406,36.6-36.571,36.6c-20.165,0-36.571-16.386-36.571-36.556
			c0-5.053-4.094-9.136-9.143-9.136c-5.049,0-9.143,4.094-9.143,9.147c0,30.25,24.607,54.859,54.857,54.859
			c30.25,0,54.857-24.667,54.857-54.917C393.143,280.561,368.536,255.896,338.286,255.896z"/>
	</g>
</g>
<g>
	<g>
		<path d="M457.143,128.015c-30.25,0-54.857,24.607-54.857,54.857c0,5.049,4.094,9.143,9.143,9.143s9.143-4.094,9.143-9.143
			c0-20.165,16.406-36.571,36.571-36.571c20.165,0,36.571,16.347,36.571,36.511c0,20.166-16.406,36.512-36.571,36.512H64
			c-5.049,0-9.143,4.094-9.143,9.143s4.094,9.143,9.143,9.143h393.143c30.25,0,54.857-24.547,54.857-54.798
			C512,152.562,487.393,128.015,457.143,128.015z"/>
	</g>
</g>
</svg>