<svg width="24" height="24" viewBox="0 0 24 24" fill="none" xmlns="http://www.w3.org/2000/svg">
<g clip-path="url(#clip0_202_455)">
<path d="M21.9873 6.03851L8.4873 1.53851C8.37226 1.50015 8.24963 1.49026 8.12992 1.50968C8.01022 1.52911 7.89701 1.57727 7.8 1.65004L3 5.25004V1.50004H1.5V22.5H3V8.25004L7.8 11.85C7.89701 11.9228 8.01022 11.971 8.12994 11.9905C8.24966 12.0099 8.37231 12.0001 8.48737 11.9617L21.9874 7.46171C22.1367 7.41194 22.2666 7.31644 22.3587 7.18874C22.4507 7.06104 22.5002 6.90761 22.5002 6.75019C22.5002 6.59277 22.4507 6.43934 22.3587 6.31164C22.2666 6.18394 22.1366 6.08829 21.9873 6.03851ZM7.5 9.75004L3.49988 6.75004L7.5 3.75004V9.75004ZM10.5 9.70939L9 10.2096V3.29044L10.5 3.79069V9.70939ZM13.5 8.70964L12 9.20951V4.29056L13.5 4.79044V8.70964ZM15 8.20939V5.29069L19.3784 6.75004L15 8.20939Z" fill="white"/>
<path d="M15 16.5C15 15.7044 14.6839 14.9413 14.1213 14.3787C13.5587 13.8161 12.7956 13.5 12 13.5C11.2044 13.5 10.4413 13.8161 9.87868 14.3787C9.31607 14.9413 9 15.7044 9 16.5H10.5C10.5 16.2033 10.588 15.9133 10.7528 15.6666C10.9176 15.42 11.1519 15.2277 11.426 15.1142C11.7001 15.0006 12.0017 14.9709 12.2926 15.0288C12.5836 15.0867 12.8509 15.2296 13.0607 15.4393C13.2704 15.6491 13.4133 15.9164 13.4712 16.2074C13.5291 16.4983 13.4994 16.7999 13.3858 17.074C13.2723 17.3481 13.08 17.5824 12.8334 17.7472C12.5867 17.912 12.2967 18 12 18H6V19.5H12C12.7954 19.4991 13.5579 19.1827 14.1203 18.6203C14.6827 18.0579 14.9991 17.2954 15 16.5Z" fill="white"/>
<path d="M19.5 16.5C18.7046 16.5009 17.9421 16.8173 17.3797 17.3797C16.8173 17.9421 16.5009 18.7046 16.5 19.5H18C18 19.2033 18.088 18.9133 18.2528 18.6666C18.4176 18.42 18.6519 18.2277 18.926 18.1142C19.2001 18.0006 19.5017 17.9709 19.7926 18.0288C20.0836 18.0867 20.3509 18.2296 20.5607 18.4393C20.7704 18.6491 20.9133 18.9164 20.9712 19.2074C21.0291 19.4983 20.9994 19.7999 20.8858 20.074C20.7723 20.3481 20.58 20.5824 20.3334 20.7472C20.0867 20.912 19.7967 21 19.5 21H9V22.5H19.5C20.2956 22.5 21.0587 22.1839 21.6213 21.6213C22.1839 21.0587 22.5 20.2956 22.5 19.5C22.5 18.7044 22.1839 17.9413 21.6213 17.3787C21.0587 16.8161 20.2956 16.5 19.5 16.5Z" fill="white"/>
</g>
<defs>
<clipPath id="clip0_202_455">
<rect width="24" height="24" fill="white"/>
</clipPath>
</defs>
</svg>
